<svg xmlns="http://www.w3.org/2000/svg" xmlns:xlink="http://www.w3.org/1999/xlink" width="800" height="500" viewBox="0 0 800 500">
    <defs>
        <linearGradient id="a">
            <stop offset="0" style="stop-color:#000;stop-opacity:1"/>
            <stop offset="1" style="stop-color:#fff;stop-opacity:1"/>
        </linearGradient>
        <linearGradient xlink:href="#a" id="b" x1="0" x2="800" y1="250" y2="250" gradientUnits="userSpaceOnUse"/>
    </defs>
    <g style="display:inline">
        <path d="M0 0h800v500H0z" style="display:inline;opacity:1;fill:#1e1c27;fill-opacity:1;stroke:none;stroke-width:3.94817;paint-order:fill markers stroke"/>
        <text xml:space="preserve" x="398.56" y="110.521" style="font-style:italic;font-weight:700;font-size:48px;line-height:1;font-family:Serif;-inkscape-font-specification:&quot;Serif Bold Italic&quot;;text-align:center;letter-spacing:2px;word-spacing:0;writing-mode:lr-tb;direction:ltr;text-anchor:middle;opacity:1;fill:#babed6;fill-opacity:1;stroke:none;stroke-width:1.13386;paint-order:fill markers stroke" transform="translate(0 -52.518)"><tspan x="399.56" y="110.521">PERCEIVED GRADIENT</tspan></text>
        <text xml:space="preserve" x="659.811" y="134.735" style="font-style:italic;font-weight:700;font-size:21.3333px;line-height:1;font-family:Serif;-inkscape-font-specification:&quot;Serif Bold Italic&quot;;text-align:center;letter-spacing:2px;word-spacing:0;writing-mode:lr-tb;direction:ltr;text-anchor:middle;opacity:1;fill:#8d8d8d;fill-opacity:1;stroke:none;stroke-width:1.13386;paint-order:fill markers stroke" transform="translate(0 -52.518)"><tspan x="660.811" y="134.735">uneven steps in nits</tspan></text>
        <text xml:space="preserve" x="667.102" y="728.533" style="font-style:italic;font-weight:700;font-size:21.3333px;line-height:1;font-family:Serif;-inkscape-font-specification:&quot;Serif Bold Italic&quot;;text-align:center;letter-spacing:2px;word-spacing:0;writing-mode:lr-tb;direction:ltr;text-anchor:middle;opacity:1;fill:#8d8d8d;fill-opacity:1;stroke:none;stroke-width:1.13386;paint-order:fill markers stroke" transform="translate(0 -250.056)"><tspan x="668.102" y="728.533">even steps in nits</tspan></text>
        <text xml:space="preserve" x="398.56" y="704.926" style="font-style:italic;font-weight:700;font-size:48px;line-height:1;font-family:Serif;-inkscape-font-specification:&quot;Serif Bold Italic&quot;;text-align:center;letter-spacing:2px;word-spacing:0;writing-mode:lr-tb;direction:ltr;text-anchor:middle;opacity:1;fill:#babed6;fill-opacity:1;stroke:none;stroke-width:1.13386;paint-order:fill markers stroke" transform="translate(0 -250.056)"><tspan x="399.56" y="704.926">REAL GRADIENT</tspan></text>
        <g style="display:inline">
            <path d="M780 100v150h20V100Z" style="opacity:1;fill:#fff;fill-opacity:1;stroke:none;stroke-width:2.1116;paint-order:fill markers stroke"/>
            <path d="M759 100v150h22V100Z" style="opacity:1;fill:#f8f8f8;fill-opacity:1;stroke:none;stroke-width:2.21466;paint-order:fill markers stroke"/>
            <path d="M739 100v150h22V100Z" style="opacity:1;fill:#f1f1f1;fill-opacity:1;stroke:none;stroke-width:2.21466;paint-order:fill markers stroke"/>
            <path d="M719 100v150h22V100Z" style="opacity:1;fill:#ebebeb;fill-opacity:1;stroke:none;stroke-width:2.21466;paint-order:fill markers stroke"/>
            <path d="M699 100v150h22V100Z" style="opacity:1;fill:#e4e4e4;fill-opacity:1;stroke:none;stroke-width:2.21466;paint-order:fill markers stroke"/>
            <path d="M679 100v150h22V100Z" style="opacity:1;fill:#dedede;fill-opacity:1;stroke:none;stroke-width:2.21466;paint-order:fill markers stroke"/>
            <path d="M659 100v150h22V100Z" style="opacity:1;fill:#d7d7d7;fill-opacity:1;stroke:none;stroke-width:2.21466;paint-order:fill markers stroke"/>
            <path d="M639 100v150h22V100Z" style="opacity:1;fill:#d1d1d1;fill-opacity:1;stroke:none;stroke-width:2.21466;paint-order:fill markers stroke"/>
            <path d="M619 100v150h22V100Z" style="opacity:1;fill:#cacaca;fill-opacity:1;stroke:none;stroke-width:2.21466;paint-order:fill markers stroke"/>
            <path d="M599 100v150h22V100Z" style="opacity:1;fill:#c4c4c4;fill-opacity:1;stroke:none;stroke-width:2.21466;paint-order:fill markers stroke"/>
            <path d="M579 100v150h22V100Z" style="opacity:1;fill:#bdbdbd;fill-opacity:1;stroke:none;stroke-width:2.21466;paint-order:fill markers stroke"/>
            <path d="M559 100v150h22V100Z" style="opacity:1;fill:#b7b7b7;fill-opacity:1;stroke:none;stroke-width:2.21466;paint-order:fill markers stroke"/>
            <path d="M539 100v150h22V100Z" style="opacity:1;fill:#b0b0b0;fill-opacity:1;stroke:none;stroke-width:2.21466;paint-order:fill markers stroke"/>
            <path d="M519 100v150h22V100Z" style="opacity:1;fill:#aaa;fill-opacity:1;stroke:none;stroke-width:2.21466;paint-order:fill markers stroke"/>
            <path d="M499 100v150h22V100Z" style="opacity:1;fill:#a3a3a3;fill-opacity:1;stroke:none;stroke-width:2.21466;paint-order:fill markers stroke"/>
            <path d="M479 100v150h22V100Z" style="opacity:1;fill:#9c9c9c;fill-opacity:1;stroke:none;stroke-width:2.21466;paint-order:fill markers stroke"/>
            <path d="M459 100v150h22V100Z" style="opacity:1;fill:#969696;fill-opacity:1;stroke:none;stroke-width:2.21466;paint-order:fill markers stroke"/>
            <path d="M439 100v150h22V100Z" style="opacity:1;fill:#8f8f8f;fill-opacity:1;stroke:none;stroke-width:2.21466;paint-order:fill markers stroke"/>
            <path d="M419 100v150h22V100Z" style="opacity:1;fill:#898989;fill-opacity:1;stroke:none;stroke-width:2.21466;paint-order:fill markers stroke"/>
            <path d="M399 100v150h22V100Z" style="opacity:1;fill:#828282;fill-opacity:1;stroke:none;stroke-width:2.21466;paint-order:fill markers stroke"/>
            <path d="M379 100v150h22V100Z" style="opacity:1;fill:#7c7c7c;fill-opacity:1;stroke:none;stroke-width:2.21466;paint-order:fill markers stroke"/>
            <path d="M359 100v150h22V100Z" style="opacity:1;fill:#757575;fill-opacity:1;stroke:none;stroke-width:2.21466;paint-order:fill markers stroke"/>
            <path d="M339 100v150h22V100Z" style="opacity:1;fill:#6f6f6f;fill-opacity:1;stroke:none;stroke-width:2.21466;paint-order:fill markers stroke"/>
            <path d="M319 100v150h22V100Z" style="opacity:1;fill:#686868;fill-opacity:1;stroke:none;stroke-width:2.21466;paint-order:fill markers stroke"/>
            <path d="M299 100v150h22V100Z" style="opacity:1;fill:#626262;fill-opacity:1;stroke:none;stroke-width:2.21466;paint-order:fill markers stroke"/>
            <path d="M279 100v150h22V100Z" style="opacity:1;fill:#5b5b5b;fill-opacity:1;stroke:none;stroke-width:2.21466;paint-order:fill markers stroke"/>
            <path d="M259 100v150h22V100Z" style="opacity:1;fill:#555;fill-opacity:1;stroke:none;stroke-width:2.21466;paint-order:fill markers stroke"/>
            <path d="M239 100v150h22V100Z" style="opacity:1;fill:#4e4e4e;fill-opacity:1;stroke:none;stroke-width:2.21466;paint-order:fill markers stroke"/>
            <path d="M219 100v150h22V100Z" style="opacity:1;fill:#474747;fill-opacity:1;stroke:none;stroke-width:2.21466;paint-order:fill markers stroke"/>
            <path d="M199 100v150h22V100Z" style="opacity:1;fill:#414141;fill-opacity:1;stroke:none;stroke-width:2.21466;paint-order:fill markers stroke"/>
            <path d="M179 100v150h22V100Z" style="opacity:1;fill:#3a3a3a;fill-opacity:1;stroke:none;stroke-width:2.21466;paint-order:fill markers stroke"/>
            <path d="M159 100v150h22V100Z" style="opacity:1;fill:#343434;fill-opacity:1;stroke:none;stroke-width:2.21466;paint-order:fill markers stroke"/>
            <path d="M139 100v150h22V100Z" style="opacity:1;fill:#2d2d2d;fill-opacity:1;stroke:none;stroke-width:2.21466;paint-order:fill markers stroke"/>
            <path d="M119 100v150h22V100Z" style="opacity:1;fill:#272727;fill-opacity:1;stroke:none;stroke-width:2.21466;paint-order:fill markers stroke"/>
            <path d="M99 100v150h22V100Z" style="opacity:1;fill:#202020;fill-opacity:1;stroke:none;stroke-width:2.21466;paint-order:fill markers stroke"/>
            <path d="M79 100v150h22V100Z" style="opacity:1;fill:#1a1a1a;fill-opacity:1;stroke:none;stroke-width:2.21466;paint-order:fill markers stroke"/>
            <path d="M59 100v150h22V100Z" style="opacity:1;fill:#131313;fill-opacity:1;stroke:none;stroke-width:2.21466;paint-order:fill markers stroke"/>
            <path d="M39 100v150h22V100Z" style="opacity:1;fill:#0d0d0d;fill-opacity:1;stroke:none;stroke-width:2.21466;paint-order:fill markers stroke"/>
            <path d="M19 100v150h22V100Z" style="opacity:1;fill:#060606;fill-opacity:1;stroke:none;stroke-width:2.21466;paint-order:fill markers stroke"/>
            <path d="M0 100v150h20V100Z" style="opacity:1;fill:#000;fill-opacity:1;stroke:none;stroke-width:2.1116;paint-order:fill markers stroke"/>
        </g>
        <g style="display:inline">
            <path d="M780 250v150h20V250Z" style="opacity:1;fill:#fff;fill-opacity:1;stroke:none;stroke-width:2.1116;paint-order:fill markers stroke"/>
            <path d="M759 250v150h22V250Z" style="opacity:1;fill:#fbfbfb;fill-opacity:1;stroke:none;stroke-width:2.21466;paint-order:fill markers stroke"/>
            <path d="M739 250v150h22V250Z" style="opacity:1;fill:#f8f8f8;fill-opacity:1;stroke:none;stroke-width:2.21466;paint-order:fill markers stroke"/>
            <path d="M719 250v150h22V250Z" style="opacity:1;fill:#f5f5f5;fill-opacity:1;stroke:none;stroke-width:2.21466;paint-order:fill markers stroke"/>
            <path d="M699 250v150h22V250Z" style="opacity:1;fill:#f2f2f2;fill-opacity:1;stroke:none;stroke-width:2.21466;paint-order:fill markers stroke"/>
            <path d="M679 250v150h22V250Z" style="opacity:1;fill:#efefef;fill-opacity:1;stroke:none;stroke-width:2.21466;paint-order:fill markers stroke"/>
            <path d="M659 250v150h22V250Z" style="opacity:1;fill:#ebebeb;fill-opacity:1;stroke:none;stroke-width:2.21466;paint-order:fill markers stroke"/>
            <path d="M639 250v150h22V250Z" style="opacity:1;fill:#e8e8e8;fill-opacity:1;stroke:none;stroke-width:2.21466;paint-order:fill markers stroke"/>
            <path d="M619 250v150h22V250Z" style="opacity:1;fill:#e5e5e5;fill-opacity:1;stroke:none;stroke-width:2.21466;paint-order:fill markers stroke"/>
            <path d="M599 250v150h22V250Z" style="opacity:1;fill:#e2e2e2;fill-opacity:1;stroke:none;stroke-width:2.21466;paint-order:fill markers stroke"/>
            <path d="M579 250v150h22V250Z" style="opacity:1;fill:#dedede;fill-opacity:1;stroke:none;stroke-width:2.21466;paint-order:fill markers stroke"/>
            <path d="M559 250v150h22V250Z" style="opacity:1;fill:#dbdbdb;fill-opacity:1;stroke:none;stroke-width:2.21466;paint-order:fill markers stroke"/>
            <path d="M539 250v150h22V250Z" style="opacity:1;fill:#d7d7d7;fill-opacity:1;stroke:none;stroke-width:2.21466;paint-order:fill markers stroke"/>
            <path d="M519 250v150h22V250Z" style="opacity:1;fill:#d4d4d4;fill-opacity:1;stroke:none;stroke-width:2.21466;paint-order:fill markers stroke"/>
            <path d="M499 250v150h22V250Z" style="opacity:1;fill:#d0d0d0;fill-opacity:1;stroke:none;stroke-width:2.21466;paint-order:fill markers stroke"/>
            <path d="M479 250v150h22V250Z" style="opacity:1;fill:#cbcbcb;fill-opacity:1;stroke:none;stroke-width:2.21466;paint-order:fill markers stroke"/>
            <path d="M459 250v150h22V250Z" style="opacity:1;fill:#c8c8c8;fill-opacity:1;stroke:none;stroke-width:2.21466;paint-order:fill markers stroke"/>
            <path d="M439 250v150h22V250Z" style="opacity:1;fill:#c4c4c4;fill-opacity:1;stroke:none;stroke-width:2.21466;paint-order:fill markers stroke"/>
            <path d="M419 250v150h22V250Z" style="opacity:1;fill:silver;fill-opacity:1;stroke:none;stroke-width:2.21466;paint-order:fill markers stroke"/>
            <path d="M399 250v150h22V250Z" style="opacity:1;fill:#bbb;fill-opacity:1;stroke:none;stroke-width:2.21466;paint-order:fill markers stroke"/>
            <path d="M379 250v150h22V250Z" style="opacity:1;fill:#b7b7b7;fill-opacity:1;stroke:none;stroke-width:2.21466;paint-order:fill markers stroke"/>
            <path d="M359 250v150h22V250Z" style="opacity:1;fill:#b2b2b2;fill-opacity:1;stroke:none;stroke-width:2.21466;paint-order:fill markers stroke"/>
            <path d="M339 250v150h22V250Z" style="opacity:1;fill:#aeaeae;fill-opacity:1;stroke:none;stroke-width:2.21466;paint-order:fill markers stroke"/>
            <path d="M319 250v150h22V250Z" style="opacity:1;fill:#a9a9a9;fill-opacity:1;stroke:none;stroke-width:2.21466;paint-order:fill markers stroke"/>
            <path d="M299 250v150h22V250Z" style="opacity:1;fill:#a5a5a5;fill-opacity:1;stroke:none;stroke-width:2.21466;paint-order:fill markers stroke"/>
            <path d="M279 250v150h22V250Z" style="opacity:1;fill:#9f9f9f;fill-opacity:1;stroke:none;stroke-width:2.21466;paint-order:fill markers stroke"/>
            <path d="M259 250v150h22V250Z" style="opacity:1;fill:#9a9a9a;fill-opacity:1;stroke:none;stroke-width:2.21466;paint-order:fill markers stroke"/>
            <path d="M239 250v150h22V250Z" style="opacity:1;fill:#949494;fill-opacity:1;stroke:none;stroke-width:2.21466;paint-order:fill markers stroke"/>
            <path d="M219 250v150h22V250Z" style="opacity:1;fill:#8e8e8e;fill-opacity:1;stroke:none;stroke-width:2.21466;paint-order:fill markers stroke"/>
            <path d="M199 250v150h22V250Z" style="opacity:1;fill:#888;fill-opacity:1;stroke:none;stroke-width:2.21466;paint-order:fill markers stroke"/>
            <path d="M179 250v150h22V250Z" style="opacity:1;fill:#828282;fill-opacity:1;stroke:none;stroke-width:2.21466;paint-order:fill markers stroke"/>
            <path d="M159 250v150h22V250Z" style="opacity:1;fill:#7b7b7b;fill-opacity:1;stroke:none;stroke-width:2.21466;paint-order:fill markers stroke"/>
            <path d="M139 250v150h22V250Z" style="opacity:1;fill:#737373;fill-opacity:1;stroke:none;stroke-width:2.21466;paint-order:fill markers stroke"/>
            <path d="M119 250v150h22V250Z" style="opacity:1;fill:#6c6c6c;fill-opacity:1;stroke:none;stroke-width:2.21466;paint-order:fill markers stroke"/>
            <path d="M99 250v150h22V250Z" style="opacity:1;fill:#636363;fill-opacity:1;stroke:none;stroke-width:2.21466;paint-order:fill markers stroke"/>
            <path d="M79 250v150h22V250Z" style="opacity:1;fill:#5a5a5a;fill-opacity:1;stroke:none;stroke-width:2.21466;paint-order:fill markers stroke"/>
            <path d="M59 250v150h22V250Z" style="opacity:1;fill:#4e4e4e;fill-opacity:1;stroke:none;stroke-width:2.21466;paint-order:fill markers stroke"/>
            <path d="M39 250v150h22V250Z" style="opacity:1;fill:#414141;fill-opacity:1;stroke:none;stroke-width:2.21466;paint-order:fill markers stroke"/>
            <path d="M19 250v150h22V250Z" style="opacity:1;fill:#2e2e2e;fill-opacity:1;stroke:none;stroke-width:2.21466;paint-order:fill markers stroke"/>
            <path d="M0 250v150h20V250Z" style="opacity:1;fill:#000;fill-opacity:1;stroke:none;stroke-width:2.1116;paint-order:fill markers stroke"/>
        </g>
        <path d="M0 250h800" style="font-variation-settings:normal;display:inline;opacity:1;fill:none;fill-opacity:1;stroke:url(#b);stroke-width:1.5;stroke-linecap:butt;stroke-linejoin:miter;stroke-miterlimit:4;stroke-dasharray:none;stroke-dashoffset:0;stop-color:#000;stop-opacity:1"/>
    </g>
</svg>
